<svg xmlns="http://www.w3.org/2000/svg" width="12" height="8" viewBox="0 0 12 8">
  <metadata><?xpacket begin="﻿" id="W5M0MpCehiHzreSzNTczkc9d"?>
<x:xmpmeta xmlns:x="adobe:ns:meta/" x:xmptk="Adobe XMP Core 5.6-c138 79.159824, 2016/09/14-01:09:01        ">
   <rdf:RDF xmlns:rdf="http://www.w3.org/1999/02/22-rdf-syntax-ns#">
      <rdf:Description rdf:about=""/>
   </rdf:RDF>
</x:xmpmeta>
                                                                                                    
                                                                                                    
                                                                                                    
                                                                                                    
                                                                                                    
                                                                                                    
                                                                                                    
                                                                                                    
                                                                                                    
                                                                                                    
                                                                                                    
                                                                                                    
                                                                                                    
                                                                                                    
                                                                                                    
                                                                                                    
                                                                                                    
                                                                                                    
                                                                                                    
                                                                                                    
                           
<?xpacket end="w"?></metadata>
<defs>
    <style>
      .cls-1 {
        fill: #072c42;
        fill-rule: evenodd;
      }
    </style>
  </defs>
  <path id="_2" data-name="2" class="cls-1" d="M958.5,249.862h-1.652l-1.213-3.525a0.5,0.5,0,0,0-.946,0l-1.937,5.627-1.687-4.9a0.5,0.5,0,0,0-.945,0l-0.964,2.8H947.5a0.5,0.5,0,0,0,0,1h2.012a0.5,0.5,0,0,0,.473-0.337l0.607-1.764,1.687,4.9a0.5,0.5,0,0,0,.946,0l1.937-5.626,0.857,2.489a0.5,0.5,0,0,0,.473.337H958.5A0.5,0.5,0,0,0,958.5,249.862Z" transform="translate(-947 -246)"/>
</svg>
